<svg width="56" height="12" viewBox="0 0 56 12" fill="none" xmlns="http://www.w3.org/2000/svg">
<path d="M3.826 11.612C3.08867 11.612 2.37467 11.5 1.684 11.276C1.00267 11.0427 0.466 10.744 0.074 10.38L0.592 9.288C0.965333 9.624 1.44133 9.89933 2.02 10.114C2.608 10.3193 3.21 10.422 3.826 10.422C4.638 10.422 5.24467 10.2867 5.646 10.016C6.04733 9.736 6.248 9.36733 6.248 8.91C6.248 8.574 6.136 8.30333 5.912 8.098C5.69733 7.88333 5.42667 7.72 5.1 7.608C4.78267 7.496 4.33 7.37 3.742 7.23C3.00467 7.05267 2.40733 6.87533 1.95 6.698C1.502 6.52067 1.11467 6.25 0.788 5.886C0.470667 5.51267 0.312 5.01333 0.312 4.388C0.312 3.86533 0.447333 3.394 0.718 2.974C0.998 2.554 1.418 2.218 1.978 1.966C2.538 1.714 3.23333 1.588 4.064 1.588C4.64267 1.588 5.212 1.66267 5.772 1.812C6.332 1.96133 6.81267 2.176 7.214 2.456L6.752 3.576C6.34133 3.31467 5.90267 3.11867 5.436 2.988C4.96933 2.848 4.512 2.778 4.064 2.778C3.27067 2.778 2.67333 2.92267 2.272 3.212C1.88 3.50133 1.684 3.87467 1.684 4.332C1.684 4.668 1.796 4.94333 2.02 5.158C2.244 5.36333 2.51933 5.52667 2.846 5.648C3.182 5.76 3.63467 5.88133 4.204 6.012C4.94133 6.18933 5.534 6.36667 5.982 6.544C6.43 6.72133 6.81267 6.992 7.13 7.356C7.45667 7.72 7.62 8.21 7.62 8.826C7.62 9.33933 7.48 9.81067 7.2 10.24C6.92 10.66 6.49533 10.996 5.926 11.248C5.35667 11.4907 4.65667 11.612 3.826 11.612ZM13.4313 4.01C14.374 4.01 15.1206 4.28533 15.6713 4.836C16.2313 5.37733 16.5113 6.17533 16.5113 7.23V11.5H15.1673V7.384C15.1673 6.66533 14.9946 6.124 14.6493 5.76C14.304 5.396 13.8093 5.214 13.1653 5.214C12.4373 5.214 11.8633 5.42867 11.4433 5.858C11.0233 6.278 10.8133 6.88467 10.8133 7.678V11.5H9.46931V1.112H10.8133V5.13C11.0933 4.77533 11.4573 4.5 11.9053 4.304C12.3626 4.108 12.8713 4.01 13.4313 4.01ZM21.7006 4.01C22.7273 4.01 23.5113 4.262 24.0526 4.766C24.6033 5.27 24.8786 6.02133 24.8786 7.02V11.5H23.6046V10.52C23.3806 10.8653 23.0586 11.1313 22.6386 11.318C22.2279 11.4953 21.7379 11.584 21.1686 11.584C20.3379 11.584 19.6706 11.3833 19.1666 10.982C18.6719 10.5807 18.4246 10.0533 18.4246 9.4C18.4246 8.74667 18.6626 8.224 19.1386 7.832C19.6146 7.43067 20.3706 7.23 21.4066 7.23H23.5346V6.964C23.5346 6.38533 23.3666 5.942 23.0306 5.634C22.6946 5.326 22.1999 5.172 21.5466 5.172C21.1079 5.172 20.6786 5.24667 20.2586 5.396C19.8386 5.536 19.4839 5.72733 19.1946 5.97L18.6346 4.962C19.0173 4.654 19.4746 4.42067 20.0066 4.262C20.5386 4.094 21.1033 4.01 21.7006 4.01ZM21.3926 10.548C21.9059 10.548 22.3493 10.436 22.7226 10.212C23.0959 9.97867 23.3666 9.652 23.5346 9.232V8.196H21.4626C20.3239 8.196 19.7546 8.57867 19.7546 9.344C19.7546 9.71733 19.8993 10.0113 20.1886 10.226C20.4779 10.4407 20.8793 10.548 21.3926 10.548ZM31.3278 4.01C32.2705 4.01 33.0171 4.28533 33.5678 4.836C34.1278 5.37733 34.4078 6.17533 34.4078 7.23V11.5H33.0638V7.384C33.0638 6.66533 32.8911 6.124 32.5458 5.76C32.2005 5.396 31.7058 5.214 31.0618 5.214C30.3338 5.214 29.7598 5.42867 29.3398 5.858C28.9198 6.278 28.7098 6.88467 28.7098 7.678V11.5H27.3658V4.08H28.6538V5.2C28.9245 4.81733 29.2885 4.52333 29.7458 4.318C30.2125 4.11267 30.7398 4.01 31.3278 4.01ZM36.8951 4.08H38.2391V11.5H36.8951V4.08ZM37.5671 2.652C37.3058 2.652 37.0864 2.568 36.9091 2.4C36.7411 2.232 36.6571 2.02667 36.6571 1.784C36.6571 1.54133 36.7411 1.336 36.9091 1.168C37.0864 0.990666 37.3058 0.902 37.5671 0.902C37.8284 0.902 38.0431 0.986 38.2111 1.154C38.3884 1.31267 38.4771 1.51333 38.4771 1.756C38.4771 2.008 38.3884 2.22267 38.2111 2.4C38.0431 2.568 37.8284 2.652 37.5671 2.652ZM44.0393 11.584C43.2833 11.584 42.6066 11.4207 42.0093 11.094C41.4213 10.7673 40.9593 10.3193 40.6233 9.75C40.2873 9.17133 40.1193 8.518 40.1193 7.79C40.1193 7.062 40.2873 6.41333 40.6233 5.844C40.9593 5.26533 41.4213 4.81733 42.0093 4.5C42.6066 4.17333 43.2833 4.01 44.0393 4.01C44.7113 4.01 45.3086 4.14533 45.8313 4.416C46.3633 4.68667 46.7739 5.07867 47.0633 5.592L46.0413 6.25C45.8079 5.89533 45.5186 5.62933 45.1733 5.452C44.8279 5.27467 44.4453 5.186 44.0253 5.186C43.5399 5.186 43.1013 5.29333 42.7093 5.508C42.3266 5.72267 42.0233 6.03067 41.7993 6.432C41.5846 6.824 41.4773 7.27667 41.4773 7.79C41.4773 8.31267 41.5846 8.77467 41.7993 9.176C42.0233 9.568 42.3266 9.87133 42.7093 10.086C43.1013 10.3007 43.5399 10.408 44.0253 10.408C44.4453 10.408 44.8279 10.3193 45.1733 10.142C45.5186 9.96467 45.8079 9.69867 46.0413 9.344L47.0633 9.988C46.7739 10.5013 46.3633 10.898 45.8313 11.178C45.3086 11.4487 44.7113 11.584 44.0393 11.584ZM55.3999 7.832C55.3999 7.93467 55.3906 8.07 55.3719 8.238H49.3519C49.4359 8.89133 49.7206 9.41867 50.2059 9.82C50.7006 10.212 51.3119 10.408 52.0399 10.408C52.9266 10.408 53.6406 10.1093 54.1819 9.512L54.9239 10.38C54.5879 10.772 54.1679 11.0707 53.6639 11.276C53.1693 11.4813 52.6139 11.584 51.9979 11.584C51.2139 11.584 50.5186 11.4253 49.9119 11.108C49.3053 10.7813 48.8339 10.3287 48.4979 9.75C48.1713 9.17133 48.0079 8.518 48.0079 7.79C48.0079 7.07133 48.1666 6.42267 48.4839 5.844C48.8106 5.26533 49.2539 4.81733 49.8139 4.5C50.3833 4.17333 51.0226 4.01 51.7319 4.01C52.4413 4.01 53.0713 4.17333 53.6219 4.5C54.1819 4.81733 54.6159 5.26533 54.9239 5.844C55.2413 6.42267 55.3999 7.08533 55.3999 7.832ZM51.7319 5.144C51.0879 5.144 50.5466 5.34 50.1079 5.732C49.6786 6.124 49.4266 6.63733 49.3519 7.272H54.1119C54.0373 6.64667 53.7806 6.138 53.3419 5.746C52.9126 5.34467 52.3759 5.144 51.7319 5.144Z" fill="white"/>
</svg>
